<svg xmlns="http://www.w3.org/2000/svg" viewBox="0 0 1400 560" role="img" aria-labelledby="title desc">
  <title id="title">Hidroriente S.A.</title>
  <desc id="desc">Logo tipografico de Hidroriente S.A. con simbolo verde y texto Energia renovable.</desc>
  <rect width="1400" height="560" fill="none"/>
  <g transform="translate(0 -55)">
    <path d="M72 252 C121 242 132 143 184 135 C228 129 247 228 290 228 C340 228 344 83 401 68 C468 51 496 210 531 315 C541 346 556 378 578 406"
          fill="none" stroke="#4ba82f" stroke-width="42" stroke-linecap="round"/>
    <path d="M195 275 C238 328 287 344 329 316 C361 295 386 258 418 258 C442 258 414 333 427 372"
          fill="none" stroke="#4ba82f" stroke-width="42" stroke-linecap="round"/>
    <path d="M72 254 C124 244 133 141 186 133 C230 128 249 230 292 230 C342 230 346 80 403 66 C470 50 498 208 533 313 C543 344 558 376 580 404"
          fill="none" stroke="#86c72b" stroke-width="20" stroke-linecap="round" opacity=".92"/>
  </g>
  <text x="50" y="455" font-family="Arial Black, Montserrat, Helvetica, sans-serif" font-size="118" font-weight="900" fill="#4ba82f" letter-spacing="2">Hidroriente S.A.</text>
  <text x="55" y="530" font-family="Georgia, Times New Roman, serif" font-size="52" font-style="italic" fill="#4ba82f">Energia renovable</text>
</svg>
